<svg id="Layer_1" data-name="Layer 1" xmlns="http://www.w3.org/2000/svg" viewBox="0 0 542.08 886"><defs><style>.cls-1,.cls-2{fill:none;stroke:#fc3a52;stroke-miterlimit:10;}.cls-1{stroke-width:18px;}.cls-2{stroke-width:12px;}.cls-3{fill:#e8d5b7;}</style></defs><title>EffectorSelector</title><rect class="cls-1" x="9" y="9" width="524.08" height="868" rx="12" ry="12"/><circle class="cls-2" cx="115.45" cy="115.45" r="57.32"/><circle class="cls-2" cx="271.04" cy="221.91" r="49.13"/><circle class="cls-2" cx="426.62" cy="115.45" r="57.32"/><rect class="cls-1" x="58.13" y="533.08" width="425.81" height="294.79" rx="12" ry="12"/><line class="cls-2" x1="271.04" y1="221.91" x2="303.79" y2="189.15"/><line class="cls-2" x1="114.54" y1="114.54" x2="123.64" y2="63.59"/><line class="cls-2" x1="425.71" y1="114.54" x2="483.25" y2="112"/><path class="cls-3" d="M367.77,395.55H418V448.3h37.46v25.13H418v52.94H367.77ZM434.1,517.23q0-19.94,22.42-27.05,8.6-2.7,22.14-2.7H486v39.09H434.1Zm.09-121.68H486v36.39h-9.71q-25.32,0-34.57-8.19Q434.2,417,434.19,402Z" transform="translate(-227.75 -59)"/><path class="cls-3" d="M511.17,434.25h-.56q0-19.83,10.46-29.27t32.23-9.43l76.51,95.69q0,19-10,27.24-9.72,8-31.77,8Zm-.28,26,55.49,66.33H510.89Zm61.28-64.69h57.64v65.94Z" transform="translate(-227.75 -59)"/></svg>